<?xml version="1.0" encoding="utf-8"?>
<svg version="1.1" id="imooc" xmlns="http://www.w3.org/2000/svg" xmlns:xlink="http://www.w3.org/1999/xlink" x="0px" y="0px" viewBox="0 0 104.3 107.4" style="enable-background:new 0 0 104.3 107.4;" xml:space="preserve">
<style type="text/css">
.st0 { fill: none; stroke: #C7000B; stroke-miterlimit: 10; }
.st1 { fill: #C7000B; }
.st2 { fill: #A40000; }
.st3 { fill: #FFFFFF; }
</style>
<g>
    <line class="st0" x1="97.6" y1="52.2" x2="97.9" y2="15.6" />
    <line class="st0" x1="101.3" y1="14.9" x2="104.3" y2="14.2" />
    <line class="st0" x1="101.3" y1="12.7" x2="104.3" y2="10.4" />
    <line class="st0" x1="98.8" y1="9.1" x2="98.8" y2="3.7" />
    <line class="st0" x1="94.3" y1="8.1" x2="96.7" y2="11.6" />
    <line class="st0" x1="90" y1="14.2" x2="93.3" y2="14.2" />
    <line class="st0" x1="95.5" y1="15.6" x2="93.3" y2="17.4" />
    <line class="st0" x1="101.3" y1="18.4" x2="102.8" y2="21.7" />
</g>
<path d="M100.6,51.6c1-1.1,3.6-7.6,0.6-9.1c-3-1.5-5.1,0-6.2,1.3c-1.1,1.2-1.6,4.9-0.1,5.4c1.5,0.5,4.8,1.4,3.7,2.7
c-1.2,1.3-18.7,17.4-18.8,20.9c2.4-1,2.4-1,2.4-1S95.4,57.6,100.6,51.6z" />
<g>
    <line class="st0" x1="14.2" y1="47.9" x2="8" y2="11.8" />
    <line class="st0" x1="11.3" y1="10.6" x2="14.1" y2="9.3" />
    <line class="st0" x1="10.9" y1="8.4" x2="13.4" y2="5.6" />
    <line class="st0" x1="7.8" y1="5.3" x2="6.9" y2="0" />
    <line class="st0" x1="3.2" y1="5.1" x2="6.1" y2="8.1" />
    <line class="st0" x1="0" y1="11.9" x2="3.3" y2="11.3" />
    <line class="st0" x1="5.7" y1="12.2" x2="3.8" y2="14.4" />
    <line class="st0" x1="11.9" y1="14" x2="14" y2="17" />
</g>
<path d="M10.1,47.4c-1-1.1-3.6-7.6-0.6-9.1s5.1,0,6.2,1.3c1.1,1.2,1.6,4.9,0.1,5.4c-1.5,0.5-4.8,1.4-3.7,2.7
C13.2,49,23,59,23.1,62.5c-0.2,0.7-1.6,0.1-1.6,0.1S15.3,53.4,10.1,47.4z" />
<path d="M38,18.3c0,0,6.5,8.8,5.8,15c-0.7,6.2-4.1,9.8-11.4,16.6S20.2,62,17.5,70.2c-1.7,5.2-1.2,14.4,2.7,21c4.2,7,11.4,12,19.9,14
s16.6,2.7,22.9,1.7c6.4-0.9,12.8-4.6,16-8.8c3.2-4.3,5-9.2,5.5-13.8s2.1-13.7-4.8-25.7c-6.8-11.9-21.1-19-21.1-19s4.5,4.4,1.9,9.3
c-1.8,3.3-8.4,4.3-6.5-3.3c1.9-7.4,1.9-10.4,0.9-13.5C54.1,29.2,49.4,20.3,38,18.3z" />
<path class="st1" d="M39,18.9c0,0,7.3,8,5.9,17C44,42,41.5,45.1,34.2,52S23.1,62.7,20.6,71c-2.1,6.7-0.8,15,3.3,20.6
c4.5,6.2,8.3,8.9,16.7,11s15.3,2.7,21.7,1.7c6.4-0.9,10.3-3.2,14.3-7.5c3.6-3.9,4.9-8.5,5.7-13.6c0.8-4.9,0.5-13.5-4.3-23.5
c-6.1-12.3-19-19.9-19-19.9s6.2,6,1.9,12.3c-2.1,3.1-12.1,2.7-9.5-4.7c2.6-7.4,3.3-12.2,2.5-15.4C52.8,27.8,48.3,22.2,39,18.9z" />
<g>
    <path class="st2" d="M78.2,59.7c-6.1-12.3-19-19.9-19-19.9s0.2,0.2,0.4,0.6c2.5,2.5,9.1,9.3,11.5,15.6c2.9,7.4,5.3,17.7,2.8,28.3
	c-2.5,11-8.6,17.2-12.8,20.1c0.5-0.1,0.9-0.1,1.4-0.2c6.4-0.9,10.3-3.2,14.3-7.5c3.6-3.9,4.9-8.5,5.7-13.6
	C83.4,78.3,83.1,69.7,78.2,59.7z" />
</g>
<g>
    <path class="st2" d="M58.2,76.3c-0.1,0.6-0.5,1.3-0.7,2c-1.3,3-2.5,6-3.9,8.8c-0.3,0.5-0.6,1-1.1,1c-0.6,0.1-1-0.9-0.7-1.8
	c0.3-1,0.8-1.9,1.3-2.8c0.7-1.6,1.4-3.1,2.2-4.7c0.5-1.1,1.1-2.2,1.8-3.2c0.1-0.2,0.3-0.3,0.4-0.4C58,75,58.3,75.3,58.2,76.3z" />
    <path class="st2" d="M46.9,88.1C46.1,88,45.7,87,46.1,86c0.4-1.3,1.1-2.5,1.6-3.7c0.8-1.7,1.6-3.2,2.5-4.8c0.2-0.4,0.4-0.7,0.7-0.9
	c0.3-0.3,0.5-0.3,0.8,0c0.2,0.2,0.3,0.6,0.2,1c-0.6,2-1.5,3.8-2.3,5.7c-0.5,1.2-1.1,2.4-1.6,3.7C47.6,87.7,47.3,88.1,46.9,88.1z" />
    <path class="st2" d="M63.5,78.7c-0.2,1.6-0.8,2.9-1.4,4.2c-0.9,1.9-1.9,3.6-2.9,5.4c-0.4,0.7-0.9,0.9-1.2,0.4
	c-0.4-0.5-0.5-1.3-0.1-2c1.1-2,2.3-3.9,3.3-5.9c0.4-0.9,0.9-1.7,1.3-2.6c0.2-0.4,0.4-0.9,0.8-0.7C63.7,77.7,63.6,78.2,63.5,78.7z" />
    <path class="st2" d="M40.4,86.2c-0.8-0.1-1.2-1.2-0.7-2.2c1-2,2-4.1,2.9-6.1c0.3-0.6,0.6-1.4,1-1.9c0.3-0.3,0.6-0.6,0.9-0.2
	c0.3,0.4,0.3,0.8,0.2,1.4c-0.6,2-1.4,3.8-2.3,5.7c-0.4,0.8-0.7,1.6-1,2.5C41.2,85.9,40.9,86.2,40.4,86.2z" />
    <path class="st2" d="M63.9,86.9c-0.6,0-1-1.3-0.5-2.1c0.7-1.4,1.4-2.7,2.3-3.9c0.5-0.7,1-1.6,1.7-2.2c0.2-0.1,0.3-0.2,0.5-0.3
	c0.3-0.1,0.5,0.3,0.4,0.8c-0.1,0.4-0.3,0.7-0.5,1.1c-0.9,1.8-1.8,3.7-2.7,5.5C64.8,86.3,64.5,86.9,63.9,86.9z" />
    <path class="st2" d="M35.3,83.4c0-0.8,0.4-1.3,0.6-1.9c0.7-1.7,1.5-3.2,2.1-5c0.2-0.5,0.5-0.5,0.7-0.4c0.4,0.2,0.4,0.7,0.3,1.2
	c-0.1,0.4-0.2,0.8-0.3,1.2c-0.7,1.7-1.4,3.4-2.1,5.1c-0.1,0.2-0.2,0.4-0.3,0.5c-0.2,0.3-0.4,0.4-0.7,0.2
	C35.3,84,35.2,83.8,35.3,83.4z" />
    <path class="st2" d="M30.9,79.8c-0.8,0-1.2-1.2-0.7-2.1c0.4-0.8,0.9-1.5,1.3-2.2c0.3-0.5,0.7-0.5,1-0.2c0.3,0.3,0.4,0.8,0.3,1.4
	c-0.2,1.1-0.7,1.9-1.2,2.7C31.4,79.7,31.2,79.8,30.9,79.8z" />
    <path class="st2" d="M68.7,84.6c-0.7-0.1-1-1-0.7-1.8c0.3-0.7,0.7-1.4,1.2-2c0.3-0.4,0.7-0.5,1-0.2c0.3,0.3,0.3,0.8,0.1,1.4
	c-0.2,0.8-0.6,1.4-0.9,2.1C69.3,84.5,69,84.7,68.7,84.6z" />
</g>
<path d="M58.6,69.6c1.8-1.9,3.4-2,4.8-2.1c1.4-0.1,4.5,1.6,5.4,2.6c1,1,2.2,2.6,2.7,3.8c0.5,1.2-0.1,1.3-1.6-0.8s-3.9-3.8-6.8-3.4s-3.5,1.4-4.3,2.3S55.8,72.5,58.6,69.6z" />
<path d="M45.2,68.6c-1.5-2.2-3.1-2.6-4.4-2.8c-1.4-0.3-4.7,0.9-5.8,1.7s-2.6,2.2-3.2,3.3c-0.7,1.1-0.1,1.3,1.7-0.5c1.8-1.8,4.4-3.1,7.2-2.3s3.3,1.9,3.9,2.9S47.4,71.9,45.2,68.6z" />
<path class="st3" d="M23,90.3c-0.8-1.5-1.6-3.9,0-5.7s3.8-3,6.9,1.6c3.1,4.6,7.2,7.8,14.2,9.3C50.5,96.8,61,98,65.8,95c5.2-3.3,5.5-6,8.1-7.4s5.4-0.6,6,1.4c0.5,1.5,0.1,3.9-1.5,6.1c-1.4,1.9-5.8,10.3-23.3,9.6c-13.1-0.5-21-3.9-23.1-5.4S25.5,95.1,23,90.3z" />
</svg>
