<?xml version="1.0" standalone="no"?>
<!DOCTYPE svg PUBLIC "-//W3C//DTD SVG 1.1//EN" "http://www.w3.org/Graphics/SVG/1.1/DTD/svg11.dtd" >
<svg xmlns="http://www.w3.org/2000/svg">
<metadata></metadata>
<defs>
<font id="ijeklynwosregular" horiz-adv-x="2048" >
<font-face units-per-em="2048" ascent="1744" descent="-304" />
<missing-glyph horiz-adv-x="680" />
<glyph horiz-adv-x="0" />
<glyph horiz-adv-x="682" />
<glyph unicode=" "  horiz-adv-x="680" />
<glyph unicode="&#x09;" horiz-adv-x="680" />
<glyph unicode="&#xa0;" horiz-adv-x="680" />
<glyph unicode="!" horiz-adv-x="640" d="M152 120q8 -120 168 -128q160 8 168 128q-16 128 -168 136q-152 -16 -168 -136zM168 1224l120 -768h64l120 768q24 88 -64 80h-184q-80 16 -56 -80z" />
<glyph unicode="&#x22;" horiz-adv-x="1128" d="M176 1152q0 -48 24 -128l96 -384h56l96 384q24 80 24 128q-8 144 -152 152q-136 -8 -144 -152zM656 1152q0 -48 24 -128l104 -384h48l104 384q16 80 16 128q-8 144 -144 152q-144 -8 -152 -152z" />
<glyph unicode="#" horiz-adv-x="1368" d="M88 328h192l-88 -384h144l80 384h408l-88 -384h144l88 384h312v144h-288l72 344h216v144h-184l80 400h-144l-80 -400h-400l88 400h-144l-88 -400h-320v-144h288l-72 -344h-216v-144zM448 472l72 344h400l-72 -344h-400z" />
<glyph unicode="$" horiz-adv-x="976" d="M56 256q32 -240 392 -264v-168h56v168q384 40 408 376q24 240 -408 440v408q80 -24 120 -152q48 -120 128 -120q104 8 112 104q-32 208 -360 240v88h-56v-88q-344 -56 -352 -336q-8 -248 352 -408v-496q-112 16 -152 184q-32 144 -128 144q-104 -8 -112 -120zM288 1056 q8 136 160 168v-384q-168 88 -160 216zM504 48v464q200 -104 192 -248q-8 -176 -192 -216z" />
<glyph unicode="%" horiz-adv-x="1832" d="M128 952q16 -320 256 -344q248 16 264 344q-16 336 -264 352q-240 -16 -256 -352zM304 808v304q0 144 80 144q88 0 88 -144v-304q8 -144 -88 -144q-88 0 -80 144zM392 -40h144l912 1344h-144zM1184 328q16 -312 264 -328q248 16 264 328q-16 328 -264 352 q-248 -16 -264 -352zM1360 184v296q0 144 88 144t80 -144v-296q8 -144 -80 -144t-88 144z" />
<glyph unicode="&#x26;" horiz-adv-x="1536" d="M120 320q16 -320 352 -336q256 8 416 176q128 -192 280 -176q176 8 296 96l-40 80q-56 -48 -112 -56q-88 -16 -200 208q-24 32 -32 56q64 88 152 264q64 112 88 136q40 40 120 40h40v72h-408v-72h24q96 0 96 -40q-8 -80 -160 -320q-168 224 -288 296q192 88 192 240 q-16 208 -304 216q-312 -16 -336 -248q-8 -144 152 -272q-336 -136 -328 -360zM368 400q0 136 144 224q240 -208 336 -384q-128 -128 -240 -120q-216 24 -240 280zM520 1008q8 104 112 112q120 -8 128 -144q8 -104 -88 -184q-168 128 -152 216z" />
<glyph unicode="'" horiz-adv-x="568" d="M144 1152q0 -48 16 -128l104 -384h48l104 384q24 80 24 128q-8 144 -152 152q-136 -8 -144 -152z" />
<glyph unicode="(" horiz-adv-x="720" d="M136 448q0 -456 448 -832h88q-288 328 -288 832q0 528 288 856h-88q-448 -376 -448 -856z" />
<glyph unicode=")" horiz-adv-x="720" d="M56 -384h88q440 376 440 832q-8 480 -440 856h-88q280 -320 280 -856q0 -512 -280 -832z" />
<glyph unicode="*" horiz-adv-x="1064" d="M72 936l280 -160l-136 -304l72 -40l240 216l248 -216l64 40l-128 304l280 160l-24 80l-328 -32l-72 320h-72l-72 -320l-328 32z" />
<glyph unicode="+" horiz-adv-x="1360" d="M136 592h472v-472h152v472h472v152h-472v472h-152v-472h-472v-152z" />
<glyph unicode="," horiz-adv-x="640" d="M128 120q0 -120 160 -120h32q64 0 64 -24q-8 -144 -224 -176l16 -80q312 8 336 296q-8 232 -224 240q-152 -8 -160 -136z" />
<glyph unicode="-" horiz-adv-x="1360" d="M136 592h1096v152h-1096v-152z" />
<glyph unicode="." horiz-adv-x="640" d="M152 120q8 -120 168 -128q160 8 168 128q-16 128 -168 136q-152 -16 -168 -136z" />
<glyph unicode="/" horiz-adv-x="1080" d="M96 -24h168l728 1336h-168z" />
<glyph unicode="0" horiz-adv-x="1024" d="M88 640q16 -624 424 -656q408 40 424 656q-16 624 -424 664q-408 -40 -424 -664zM352 384v536q-8 328 160 312q160 8 160 -360v-456q8 -392 -160 -368q-168 -16 -160 336z" />
<glyph unicode="1" horiz-adv-x="1024" d="M144 1000l32 -56q112 32 240 104v-896q0 -72 -72 -80h-128v-72h656v72h-136q-72 0 -72 88v1144h-112q-168 -184 -408 -304z" />
<glyph unicode="2" horiz-adv-x="1024" d="M64 0h800l40 368h-64q-16 -160 -152 -152h-384q96 112 272 272q296 248 280 456q-24 336 -360 360q-344 -16 -408 -400h80q48 216 232 232q200 -8 208 -264q56 -184 -448 -696q-64 -64 -96 -104v-72z" />
<glyph unicode="3" horiz-adv-x="1024" d="M56 144q24 -144 296 -160q480 24 512 464q-24 328 -312 344h-8q216 128 216 288q-24 208 -272 224q-264 -8 -368 -280l64 -24q72 144 192 144q136 -8 144 -152q8 -136 -208 -312l32 -56q16 0 32 8t32 8q200 -16 208 -296q-8 -264 -176 -280q-80 0 -144 96q-64 88 -128 88 q-104 -8 -112 -104z" />
<glyph unicode="4" horiz-adv-x="1024" d="M64 320h448v-336h248v336h176v136h-176v848h-104l-592 -896v-88zM192 456l312 488h8v-488h-320z" />
<glyph unicode="5" horiz-adv-x="1024" d="M96 136q16 -144 280 -152q472 24 504 440q-24 400 -448 424q-88 0 -168 -24l8 248h488l32 240h-64q-8 -40 -72 -40h-456l-24 -648l56 -32q80 40 160 40q240 -16 248 -304q-16 -256 -192 -272q-64 0 -120 88q-56 96 -128 96q-96 0 -104 -104z" />
<glyph unicode="6" horiz-adv-x="1024" d="M88 504q24 -504 440 -520q384 16 408 416q-16 376 -344 392q-112 0 -216 -72q72 384 448 520l-40 64q-664 -152 -696 -800zM352 432q0 72 8 160v32q80 72 168 72q160 8 144 -320q16 -336 -152 -328q-168 0 -168 384z" />
<glyph unicode="7" horiz-adv-x="1024" d="M72 920h72q16 88 48 104q24 24 120 24h408l-464 -1064h208l464 1208v80h-824z" />
<glyph unicode="8" horiz-adv-x="1024" d="M96 312q32 -304 408 -328q384 24 424 368q0 216 -272 360q248 112 240 288q-32 280 -392 304q-352 -24 -384 -344q-8 -192 224 -344q-248 -104 -248 -304zM312 320q-8 168 104 248q344 -160 312 -320q-8 -184 -208 -200q-208 8 -208 272zM320 1056q8 168 176 176 q192 -8 200 -240q0 -152 -104 -232q-280 128 -272 296z" />
<glyph unicode="9" horiz-adv-x="1024" d="M80 872q24 -360 352 -384q104 0 208 72q-88 -408 -448 -520l48 -56q656 152 696 776q-16 520 -440 544q-384 -32 -416 -432zM344 912q-8 328 152 320q176 0 176 -368q0 -88 -16 -216q-96 -64 -168 -64q-160 -8 -144 328z" />
<glyph unicode=":" horiz-adv-x="640" d="M152 120q8 -120 168 -128q160 8 168 128q-16 128 -168 136q-152 -16 -168 -136zM152 720q16 -128 168 -136q152 8 168 136q-8 128 -168 136q-152 -16 -168 -136z" />
<glyph unicode=";" horiz-adv-x="640" d="M128 120q0 -120 160 -120h32q64 0 64 -24q-8 -144 -224 -176l16 -80q312 8 336 296q-8 232 -224 240q-152 -8 -160 -136zM160 720q16 -128 168 -136q144 8 160 136q-8 128 -160 136q-152 -16 -168 -136z" />
<glyph unicode="&#x3c;" horiz-adv-x="1360" d="M136 592l1096 -456v168l-880 360l880 368v168l-1096 -464v-144z" />
<glyph unicode="=" horiz-adv-x="1360" d="M136 360h1096v152h-1096v-152zM136 824h1096v160h-1096v-160z" />
<glyph unicode="&#x3e;" horiz-adv-x="1360" d="M136 136l1096 456v144l-1096 464v-168l880 -368l-880 -360v-168z" />
<glyph unicode="?" horiz-adv-x="744" d="M88 1168q8 -112 128 -112q48 0 120 24q64 16 112 16q120 -8 128 -136q0 -104 -208 -160q-224 -64 -224 -184q0 -96 88 -240h72q-32 80 -32 104q0 32 104 64q240 8 296 344q-16 392 -384 416q-192 -8 -200 -136zM128 120q8 -120 168 -128q152 8 160 128q-16 120 -160 136 q-152 -16 -168 -136z" />
<glyph unicode="@" horiz-adv-x="1896" d="M96 440q56 -808 880 -864q632 16 880 592h-56q-208 -504 -824 -536q-728 48 -776 768q80 880 880 928q600 -32 640 -632q-32 -496 -424 -624q-80 8 -88 80q8 72 32 152l184 632l-248 -8l-32 -120q-24 160 -144 152q-456 -152 -512 -736q8 -216 168 -224q160 0 336 312h8 q-24 -72 -24 -136q8 -168 200 -176q552 56 600 712q-32 648 -720 680q-896 -64 -960 -952zM744 280q80 496 288 608q64 0 64 -128q-40 -416 -296 -576q-56 8 -56 96z" />
<glyph unicode="A" horiz-adv-x="1512" d="M16 0h544v80h-24q-136 0 -168 32q-14 11 -14 36q0 31 22 84l80 240h448l96 -240q25 -46 25 -78q0 -20 -9 -34q-24 -40 -112 -40h-72v-80h664v80q-144 0 -208 184l-408 1040h-304l24 -56l-352 -976q-62 -192 -190 -192h-10h-32v-80zM496 584l176 480l192 -480h-368z" />
<glyph unicode="B" horiz-adv-x="1424" d="M24 0h792q496 16 528 384q-16 272 -328 344v8q256 48 256 240q0 96 -80 184q-129 144 -518 144h-42q-96 0 -336 -16q-64 0 -176 -8q-64 -8 -80 -8v-80h48q120 0 152 -32q32 -24 32 -144v-768q1 -10 1 -20q0 -149 -227 -148h-22v-80zM552 280v392q32 8 152 8 q304 -8 320 -304q0 -280 -288 -280q-14 -1 -27 -1q-157 0 -157 169v16zM552 760v456q48 8 104 8q304 0 312 -248q-8 -216 -256 -216h-160z" />
<glyph unicode="C" horiz-adv-x="1512" d="M104 632q56 -600 744 -648q88 0 216 16q96 8 136 8q72 0 120 -8q88 168 120 368h-88q-136 -288 -424 -296q-480 40 -520 584q32 512 496 544q304 -8 408 -320h80l-16 360h-56q-16 -16 -40 -16q-16 0 -64 16q-176 64 -328 64q-720 -56 -784 -672z" />
<glyph unicode="D" horiz-adv-x="1680" d="M40 0h656q496 0 696 208q184 200 184 456q0 264 -168 432q-185 208 -712 208h-40q-96 0 -248 -16q16 8 -32 0q-112 0 -336 -16v-80q120 0 152 -32q40 -32 40 -144v-792q1 -11 1 -22q0 -123 -157 -123q-17 0 -36 1v-80zM520 240v952q40 8 46 8h1q0 -1 -23 -8q88 16 128 16 q312 0 448 -152q144 -144 152 -416q-24 -552 -576 -560q-120 0 -144 24q-32 24 -32 136z" />
<glyph unicode="E" horiz-adv-x="1320" d="M0 0h1232l24 320h-80q-37 -209 -207 -209q-12 0 -25 1h-344q-10 -2 -19 -2q-61 0 -62 87q0 9 1 19v368h304q19 1 36 1q151 0 150 -114q0 -15 -2 -31h80v408h-80v-14q0 -130 -136 -130h-16h-336v456h448q9 1 17 1q105 0 127 -185h80l-24 296h-1128v-80h24h18 q158 0 158 -132v-12v-824v-13q0 -131 -144 -131h-16h-80v-80z" />
<glyph unicode="F" horiz-adv-x="1216" d="M80 0h608v80h-40q-12 -1 -22 -1q-115 0 -116 142q0 16 2 35v328h320h15q130 0 129 -129v-15h80v408h-80q1 -12 1 -24q0 -122 -144 -121q-16 0 -33 1h-288v456h400q10 1 19 1q109 0 109 -177h72v288h-1032v-72h24h11q117 0 117 -156v-20v-824v-15q0 -106 -105 -105h-15 h-32v-80z" />
<glyph unicode="G" horiz-adv-x="1592" d="M104 656q24 -656 768 -672q264 8 536 120v304v13q0 115 128 115h16v80h-680v-80q160 -8 208 -32t48 -96v-288q-88 -48 -224 -48q-464 40 -496 584q32 528 496 560q328 -8 424 -328h80v368h-56q-8 -24 -56 -24q-24 0 -112 24q-200 48 -336 48q-696 -40 -744 -648z" />
<glyph unicode="H" horiz-adv-x="1704" d="M48 0h656v80h-32q-160 0 -160 152v368h680v-360q0 -160 -152 -160h-32v-80h656v80h-32h-16q-145 0 -144 138v14v816v14q0 130 136 130h16h40v80h-656v-80h16h16q152 0 152 -138v-14v-320h-680v328v13q0 131 144 131h16h32v80h-656v-80h32q152 0 152 -144v-816 q0 -152 -152 -152h-32v-80z" />
<glyph unicode="I" horiz-adv-x="744" d="M48 0h648v80h-32h-16q-145 0 -144 138v14v808q0 152 160 152h32v80h-648v-80h24h15q138 0 137 -137v-15v-816v-13q0 -131 -152 -131h-24v-80z" />
<glyph unicode="J" horiz-adv-x="704" d="M-232 -328q0 -120 224 -120q184 0 312 128q184 176 184 464v896q0 152 131 152h13h32v80h-648v-80h32h15q137 0 137 -137v-15v-1160q0 -200 -96 -200q-32 0 -80 48q-56 72 -112 72q-128 -16 -144 -128z" />
<glyph unicode="K" horiz-adv-x="1512" d="M40 0h672v80h-32h-16q-145 0 -144 138v14v360q5 1 10 1q54 0 134 -73q280 -288 312 -384q0 -56 -144 -56v-80h704v80h-13q-161 0 -299 192l-176 224q-152 184 -224 224q88 64 224 248q80 120 120 152q40 40 80 56q40 8 144 16v80h-552v-80h24q120 0 120 -64 q-8 -96 -192 -312q-144 -136 -272 -152v368q-1 15 -1 28q0 132 138 132h15h40v80h-672v-80h32h16q145 0 144 -138v-14v-808v-15q0 -138 -137 -137h-15h-40v-80z" />
<glyph unicode="L" horiz-adv-x="1232" d="M24 0h1104l144 360h-80q-16 -16 -40 -48q-130 -202 -247 -202q-13 0 -25 2h-264q-8 -1 -15 -1q-89 0 -90 84q0 6 1 13v840q0 144 152 144h64v80h-696v-80h40h16q144 0 144 -144v-824v-13q0 -131 -151 -131h-17h-40v-80z" />
<glyph unicode="M" horiz-adv-x="1896" d="M40 0h456v80q-112 0 -144 40q-26 26 -26 113q0 22 2 47l48 728l464 -1008h56l456 1040l48 -728q8 -48 8 -96v-13q0 -124 -130 -125q-14 0 -30 2h-32v-80h640v80q-120 8 -144 40q-32 24 -32 160l-48 760q-6 42 -6 70q0 43 14 58q16 24 136 24v80h-440l-384 -856l-400 856 h-432v-80q96 -8 120 -32t24 -120l-48 -744q0 -144 -32 -176q-32 -40 -144 -40v-80z" />
<glyph unicode="N" horiz-adv-x="1664" d="M48 0h496v80q-17 -1 -33 -1q-168 0 -168 145q0 12 1 24v768l976 -1016h112v1088v10q0 95 145 95q11 0 23 -1h24v80h-528v-80h24q128 0 160 -32t32 -144v-616l-840 872h-416v-80q96 0 160 -40v-944v-12q0 -116 -152 -116h-16v-80z" />
<glyph unicode="O" horiz-adv-x="1728" d="M104 616q56 -600 744 -632q728 24 776 680q-40 608 -736 648q-736 -40 -784 -696zM408 712q24 488 432 512q448 -32 480 -640q-24 -512 -424 -528q-464 40 -488 656z" />
<glyph unicode="P" horiz-adv-x="1320" d="M48 1192h40h18q127 0 127 -98q0 -11 -1 -22v-872q1 -12 1 -22q0 -98 -127 -98h-18h-32v-80h696v80h-56q-17 -1 -32 -1q-145 0 -145 128q0 12 1 25v304l96 -16h136q496 16 512 384q-24 392 -560 400q-184 0 -328 -8q-208 -8 -328 -24v-80zM520 624v576q54 18 108 18l36 -2 q288 -8 296 -296q-8 -304 -296 -312q-80 0 -144 16z" />
<glyph unicode="Q" horiz-adv-x="1728" d="M104 624q24 -472 496 -616q96 -24 280 -176q232 -240 616 -280q72 0 120 8l32 80q-168 0 -360 200q-136 120 -216 160q528 152 552 664q-40 608 -736 648q-728 -48 -784 -688zM408 712q16 488 432 512q440 -24 480 -632q-24 -520 -424 -536q-464 40 -488 656z" />
<glyph unicode="R" horiz-adv-x="1576" d="M24 0h712v80h-64q-160 0 -160 152v312h160q80 -64 224 -256q96 -136 136 -176q72 -72 168 -104q96 -16 280 -16h128v64q-168 8 -272 128q-64 64 -168 200q-112 152 -184 216q296 80 304 328q0 136 -96 232q-129 144 -526 144h-42q-112 0 -336 -16q-64 0 -208 -8 q-32 -8 -56 -8v-80h40h17q152 0 152 -127q0 -12 -1 -25v-808v-13q0 -139 -159 -139h-17h-32v-80zM512 624v592h112q352 -8 360 -296v-11q0 -285 -392 -285h-80z" />
<glyph unicode="S" horiz-adv-x="1152" d="M120 376l48 -368h56q16 32 40 32q16 0 72 -16q176 -40 280 -40q408 16 440 368q0 144 -120 272q-96 96 -320 208q-248 136 -248 240q16 136 200 144q248 -8 336 -272h80l-40 328h-40q-16 -8 -8 -8q-24 -16 -40 -16q-8 0 -56 16q-144 40 -256 40q-392 -24 -416 -336 q48 -296 360 -400q264 -104 296 -296q-16 -192 -232 -200q-256 0 -352 304h-80z" />
<glyph unicode="T" horiz-adv-x="1488" d="M56 928h88q32 168 64 200q32 40 152 40h248v-936v-14q0 -138 -160 -138h-72v-80h736v80h-48h-18q-159 0 -159 128q0 11 1 24v936h240q128 0 160 -40q32 -32 64 -200h80l-32 384h-72q-27 -41 -78 -41q-8 0 -18 1h-976q-32 0 -56 8q-16 8 -40 32h-64z" />
<glyph unicode="U" horiz-adv-x="1576" d="M8 1192h40h16q129 0 128 -122v-14v-608q8 -456 600 -464q568 8 576 528v512v14q0 155 168 154h16h16v80h-528v-80h32h12q156 0 156 -190v-18v-496q-8 -368 -400 -376q-360 8 -368 336v608q0 136 144 136h32v80h-640v-80z" />
<glyph unicode="V" horiz-adv-x="1536" d="M8 1192h16q88 0 128 -32q32 -24 88 -136l480 -1040h128l424 992q82 217 221 217q10 0 19 -1h8v80h-520v-80h48q136 -6 136 -76q0 -16 -8 -36l-312 -752l-320 688q-29 58 -29 95q0 25 13 41q32 40 160 40h32v80h-712v-80z" />
<glyph unicode="W" d="M16 1192h16q72 0 104 -32q32 -24 88 -136l496 -1040h136l216 440l216 -440h136l416 1024q56 184 192 184v80h-408v-80q121 0 121 -79q0 -36 -25 -89l-280 -720l-216 440l152 304q56 136 152 144v80h-896v-80h8q75 0 128 -136l240 -512l-128 -264l-376 792q-26 51 -26 77 q0 6 2 11q16 24 72 32v80h-536v-80zM1032 1176q16 16 72 16h112q64 0 72 -24q6 -6 6 -19q0 -19 -14 -53l-120 -224l-112 232q-18 36 -18 58q0 8 2 14z" />
<glyph unicode="X" horiz-adv-x="1640" d="M16 0h560v80h-40q-88 0 -120 32q-8 11 -8 23q0 25 32 57l320 320l248 -296q44 -50 44 -80q0 -9 -4 -16q-16 -40 -96 -40h-48v-80h720v80h-13q-153 0 -291 184l-360 456l288 312q153 160 298 160h14v80h-552v-80h56q88 0 96 -40q1 -3 1 -6q0 -34 -73 -114l-208 -224 l-208 264q-41 55 -41 80q0 4 1 8q16 32 104 32h72v80h-776v-80h48q72 0 136 -40q56 -40 160 -160l304 -384l-320 -336q-168 -184 -344 -192v-80z" />
<glyph unicode="Y" horiz-adv-x="1536" d="M16 1192h16q80 0 112 -16t72 -80l440 -584v-288v-13q0 -131 -152 -131h-56v-80h704v80h-32h-18q-159 0 -159 128q0 12 1 24v280l344 536q56 88 96 112q48 24 136 32v80h-488v-80h24q88 0 112 -40q4 -10 4 -22q0 -38 -36 -98l-240 -376l-328 432q-18 27 -18 50q0 16 10 30 q24 24 96 24h32v80h-672v-80z" />
<glyph unicode="Z" horiz-adv-x="1536" d="M120 0h1296l24 408h-80q-40 -184 -88 -240t-152 -56h-632l912 1048v112h-1184l-16 -344h80q15 232 188 232h12h552l-912 -1048v-112z" />
<glyph unicode="[" horiz-adv-x="744" d="M232 -368h496v72h-56q-224 -8 -208 88v1328q-16 96 208 88h56v64h-496v-1640z" />
<glyph unicode="\" horiz-adv-x="1080" d="M96 1312l728 -1336h168l-728 1336h-168z" />
<glyph unicode="]" horiz-adv-x="744" d="M24 -296v-72h488v1640h-488v-64h48q232 8 208 -88v-1328q24 -96 -208 -88h-48z" />
<glyph unicode="^" horiz-adv-x="680" d="M24 976h160l152 216l168 -216h160l-176 384h-304z" />
<glyph unicode="_" horiz-adv-x="1024" d="M0 -136v-104h1040v104h-1040z" />
<glyph unicode="`" horiz-adv-x="680" d="M16 1360l360 -384h120l-152 384h-328z" />
<glyph unicode="a" horiz-adv-x="976" d="M80 192q8 -192 232 -200h18q133 0 238 112q16 -104 144 -112q128 8 232 112l-32 48q-24 -24 -56 -24q-3 -1 -6 -1q-34 0 -34 97v384q-16 216 -336 248q-224 -16 -336 -120q-57 -51 -57 -131q0 -32 9 -69l232 80q-2 18 -2 34q0 119 106 126q120 -8 128 -136v-80 q-80 -64 -240 -112q-128 -40 -176 -88q-64 -64 -64 -168zM320 232v12q0 110 136 164q72 32 104 64v-296q-80 -80 -136 -80q-96 8 -104 136z" />
<glyph unicode="b" horiz-adv-x="1168" d="M32 1224l56 -24q74 -20 74 -98q0 -14 -2 -30v-1032q264 -48 408 -48q480 24 512 472q-24 360 -328 392q-168 0 -344 -168v680h-64l-312 -96v-48zM408 344v248q80 96 184 104q216 -16 232 -320q-8 -304 -232 -312q-184 0 -184 280z" />
<glyph unicode="c" horiz-adv-x="1000" d="M88 384q24 -376 432 -392q272 0 416 208l-56 32q-128 -152 -264 -152q-240 24 -256 376q8 288 176 304q56 0 128 -80q80 -96 160 -96q104 8 104 104q-24 160 -304 168q-496 -40 -536 -472z" />
<glyph unicode="d" horiz-adv-x="1168" d="M88 368q16 -360 328 -376q152 0 336 152v-152h48l344 72v64q-40 -8 -64 -8q-8 -1 -15 -1q-66 0 -66 126q0 13 1 27v1096h-72l-312 -104v-48q136 -15 136 -109v-11v-264q-88 24 -184 24q-440 -24 -480 -488zM336 472q8 296 216 304q7 1 14 1q83 0 186 -89v-456 q-88 -96 -184 -104q-216 24 -232 344z" />
<glyph unicode="e" horiz-adv-x="976" d="M88 400q16 -392 376 -408q256 8 432 248l-48 40q-137 -152 -238 -152h-10q-208 24 -248 304h568v56q-32 16 -48 88q-24 120 -88 184q-96 96 -256 96q-408 -32 -440 -456zM344 504v22q0 204 144 234q136 -8 144 -256h-288z" />
<glyph unicode="f" horiz-adv-x="656" d="M16 0h624v64h-48h-16q-160 0 -160 146v14v504h192l16 104h-208v208q0 216 168 216q72 0 176 -96q64 -56 88 -56t40 32l64 80q18 18 18 27q0 3 -2 5q-40 112 -264 128q-496 -72 -528 -544l-160 -64v-40h152v-520v-18q0 -126 -100 -126h-12h-40v-64z" />
<glyph unicode="g" horiz-adv-x="1128" d="M80 -256q32 -184 424 -200q536 24 576 344q-16 208 -312 216h-176q-256 0 -256 72q-8 32 168 96q408 8 432 280q1 11 1 22q0 66 -41 114l208 -48v208l-288 -72q-112 80 -280 80q-384 -24 -416 -312q24 -208 264 -248v-8q-274 -59 -274 -153q0 -7 2 -15q8 -128 176 -176 q-16 -32 -96 -64q-112 -56 -112 -136zM304 -192q8 64 80 112q80 -16 176 -16h168q168 0 168 -104q-16 -160 -288 -168q-280 16 -304 176zM368 576q8 184 152 192q160 -8 168 -240q-8 -168 -144 -176q-168 8 -176 224z" />
<glyph unicode="h" horiz-adv-x="1152" d="M16 0h520v64h-16q-11 -1 -21 -1q-91 0 -91 126v19v416q120 80 208 80q128 -8 136 -176v-312q2 -20 2 -37q0 -116 -86 -116q-9 0 -20 1h-16v-64h480v64h-16q-9 -1 -17 -1q-80 0 -79 137v24v272q0 360 -224 360q-144 0 -368 -152v664h-48l-328 -96v-48l64 -24 q65 -14 65 -74q0 -7 -1 -14v-896q2 -19 2 -35q0 -118 -93 -118q-10 0 -21 1h-32v-64z" />
<glyph unicode="i" horiz-adv-x="592" d="M32 0h512v64q-128 8 -128 128v688h-32l-352 -120v-48l64 -24q73 -15 73 -75q0 -6 -1 -13v-392v-18q0 -126 -100 -126h-12h-24v-64zM120 1208q16 -136 168 -144q144 16 160 144q-8 128 -160 136q-152 -16 -168 -136z" />
<glyph unicode="j" horiz-adv-x="568" d="M-224 -336q8 -112 216 -120q392 24 424 464v872h-40l-344 -120v-48l72 -24q67 -13 67 -66q0 -10 -3 -22v-760q0 -184 -80 -184q-32 0 -72 56q-56 80 -112 80q-112 -16 -128 -128zM128 1208q8 -136 160 -144q144 16 160 144q-8 128 -160 136q-144 -16 -160 -136z" />
<glyph unicode="k" horiz-adv-x="1104" d="M32 0h496v64h-13q-107 0 -107 120v16v264l256 -336q24 -24 16 -48q-8 -16 -48 -16v-64h472v64h-16h-7q-55 0 -153 112l-296 376l128 104q128 112 255 112h17v64h-424v-64h48q32 0 48 -16q8 -16 -8 -32l-288 -240v888h-48l-328 -96v-48l56 -24q65 -14 65 -74q0 -7 -1 -14 v-904v-18q0 -127 -98 -127q-11 0 -22 1v-64z" />
<glyph unicode="l" horiz-adv-x="552" d="M8 1208l88 -32q57 -7 57 -96q0 -11 -1 -24v-848v-17q0 -127 -108 -127h-12h-16v-64h504v64q-120 0 -120 144v1160h-40l-352 -104v-56z" />
<glyph unicode="m" horiz-adv-x="1896" d="M32 712l48 -16q89 -30 89 -80q0 -4 -1 -8v-400v-17q0 -127 -108 -127h-12h-8v-64h512v64h-16q-120 0 -120 136v376q189 128 278 128h10q128 0 128 -200v-296v-17q0 -127 -108 -127h-12v-64h488v64q-120 0 -120 136v376q204 128 280 128h8q128 0 128 -232v-176v-26 q0 -206 -120 -206v-64h480v64h-14q-98 0 -98 105v15v320v24q0 328 -206 328h-10q-168 0 -456 -208q-32 200 -208 208q-9 1 -18 1q-131 0 -430 -209v232h-32l-352 -120v-48z" />
<glyph unicode="n" horiz-adv-x="1168" d="M32 712l40 -8q97 -30 97 -87q0 -4 -1 -9v-400v-18q0 -126 -100 -126h-12h-16v-64h520v64h-16q-128 0 -128 136v416q128 88 224 88h8q112 0 112 -232v-176v-28q0 -204 -112 -204v-64h480v64h-14q-98 0 -98 105v15v320v24q0 328 -206 328h-10q-152 0 -384 -160v184h-32 l-352 -120v-48z" />
<glyph unicode="o" horiz-adv-x="1168" d="M88 408q24 -400 480 -416q480 24 520 440q-32 392 -488 424q-472 -32 -512 -448zM360 528q8 232 192 240q248 -32 264 -448q-8 -248 -184 -256q-248 16 -272 464z" />
<glyph unicode="p" horiz-adv-x="1168" d="M24 -384v-64h592v64h-18q-192 0 -192 150q0 16 2 34v208q136 -16 216 -16q424 16 464 480q-24 352 -336 384h-14q-123 0 -290 -136q-24 -24 -40 -32v192h-48l-328 -112v-48l72 -24q56 -24 56 -104v-840v-17q0 -119 -100 -119h-12h-24zM408 152v448q120 104 208 104 q200 -16 216 -352q-16 -280 -208 -296q-104 0 -216 96z" />
<glyph unicode="q" horiz-adv-x="1168" d="M88 368q24 -360 336 -376q152 0 336 160v-392v-16q0 -128 -115 -128h-13h-80v-64h584v64q-128 0 -128 121v15v856q0 136 24 248h-56l-88 -80q-136 80 -296 80q-472 -32 -504 -488zM344 456q8 296 240 312q168 -8 176 -240v-288q-90 -105 -172 -105q-6 0 -12 1 q-216 24 -232 320z" />
<glyph unicode="r" horiz-adv-x="808" d="M48 0h568v64h-56h-15q-122 0 -121 121v15v336q59 89 111 89q4 0 9 -1q48 0 168 -48q64 88 96 216l-160 56q-16 8 -40 8q-48 0 -80 -40q-32 -32 -96 -168h-8v232h-40l-336 -128v-48l56 -24q73 -22 73 -116q0 -9 -1 -20v-336v-17q0 -127 -108 -127h-12h-8v-64z" />
<glyph unicode="s" horiz-adv-x="768" d="M88 240l24 -240h56q24 8 40 8q8 0 40 -8q88 -8 176 -8q256 8 272 248q0 160 -240 288q-168 96 -168 168q8 64 96 72q136 0 192 -176h64v224q-112 40 -232 40q-304 -16 -320 -256q0 -144 232 -280q152 -96 152 -160q-16 -88 -104 -96q-160 16 -216 176h-64z" />
<glyph unicode="t" horiz-adv-x="704" d="M48 720h112v-488q0 -240 232 -240q184 8 296 168l-32 64q-80 -104 -152 -104q-96 0 -96 104v496h240l24 112h-264v256h-56q-96 -216 -304 -312v-56z" />
<glyph unicode="u" horiz-adv-x="1168" d="M64 736l48 -24q41 -7 41 -84q0 -13 -1 -28v-344q8 -256 224 -264h12q120 0 356 152v-152h40l328 64v64q-32 -8 -56 -8q-8 -2 -14 -2q-51 0 -51 96q0 12 1 26v624h-40l-376 -72v-48l96 -32q73 -15 73 -102q0 -9 -1 -18v-368q-136 -80 -208 -80q-128 8 -136 200v520h-40 l-296 -72v-48z" />
<glyph unicode="v" horiz-adv-x="1064" d="M8 768q112 0 160 -128l304 -640h120l296 648q40 120 168 120v64h-408v-64q147 -6 147 -90q0 -30 -19 -70l-160 -360l-184 408q-19 42 -19 68q0 39 43 44h72v64h-520v-64z" />
<glyph unicode="w" horiz-adv-x="1592" d="M8 768q112 0 160 -120l280 -648h112l248 520l224 -520h112l264 592q54 176 173 176h11v64h-376v-64q111 -6 111 -80q0 -27 -15 -64l-144 -352l-152 376q-14 37 -14 62q0 58 72 58h14v64h-464v-64h10q81 0 118 -128l-160 -368l-160 392q-14 29 -14 50q0 49 78 54v64h-488 v-64z" />
<glyph unicode="x" horiz-adv-x="1080" d="M16 768q96 0 168 -112l232 -280l-208 -216q-96 -96 -176 -96v-64h368v64q-72 0 -80 32q-1 4 -1 8q0 32 49 88l104 120l128 -160q26 -32 26 -54q0 -5 -2 -10q-16 -24 -64 -24h-16v-64h528v64h-16q-72 0 -152 96l-264 320l144 144q120 136 240 144v64h-384v-64q64 0 88 -24 q5 -9 5 -19q0 -24 -29 -53l-112 -120l-128 152q-24 32 -8 48t64 16v64h-504v-64z" />
<glyph unicode="y" horiz-adv-x="1064" d="M0 768q8 1 16 1q103 0 184 -185l272 -560l-40 -80q-72 -144 -200 -160q-80 -8 -112 -40q-24 -40 -32 -88q8 -112 128 -120q112 0 192 152l456 920q64 152 176 160v64h-384v-64q129 -6 129 -89q0 -30 -17 -71l-160 -312l-168 352q-18 37 -18 60q0 18 10 28q16 32 96 32v64 h-528v-64z" />
<glyph unicode="z" horiz-adv-x="1040" d="M64 0h840l96 288h-64q-72 -120 -112 -144q-40 -32 -144 -32h-264l544 664v56h-680q-74 0 -74 46q0 8 2 18h-64l-72 -344h72q64 171 153 171q11 0 23 -3h280l-536 -656v-64z" />
<glyph unicode="{" horiz-adv-x="808" d="M128 416q184 -24 200 -216q0 -96 -32 -176q0 -16 -8 -32q-16 -72 -16 -120q48 -312 416 -328v48q-184 24 -200 192q0 80 24 168q24 72 24 160q-16 248 -328 336q312 88 328 336q0 96 -24 176q-24 88 -24 168q16 168 200 192v48q-368 -16 -416 -328q0 -40 16 -120 q8 -24 8 -40q32 -88 32 -176q-16 -200 -200 -224v-64z" />
<glyph unicode="|" horiz-adv-x="1152" d="M496 -264h160v1576h-160v-1576z" />
<glyph unicode="}" horiz-adv-x="808" d="M128 -408v-48q368 16 408 328q0 56 -24 152q-24 112 -24 176q16 192 192 216v64q-176 24 -192 224q0 96 24 168q24 88 24 168q-40 312 -408 328v-48q176 -24 192 -192q0 -56 -24 -168t-24 -176q16 -248 328 -336q-312 -88 -328 -336q0 -32 8 -56q8 -56 16 -104 q24 -88 24 -168q-16 -168 -192 -192z" />
<glyph unicode="~" horiz-adv-x="1064" d="M-16 456h64q24 184 160 176q64 0 208 -64q40 -16 56 -24q184 -88 312 -88q304 0 312 360h-80q0 -160 -160 -152q-48 0 -224 64q-24 8 -32 16q-8 0 -24 8q-208 64 -296 64q-288 8 -296 -360z" />
<glyph unicode="&#xa4;" d="M528 272l104 -104l128 128q120 -88 272 -88q136 0 264 88l120 -128l104 104l-120 128q80 128 80 264t-80 264l120 136l-104 104l-120 -128q-152 96 -272 88q-112 8 -264 -88l-128 128l-104 -104l128 -128q-96 -128 -88 -272q0 -144 88 -264zM720 664q32 288 304 312 q280 -32 312 -312q-24 -272 -312 -304q-280 24 -304 304z" />
<glyph unicode="&#xa7;" d="M632 856q0 -232 304 -664q184 -256 184 -336q-8 -88 -104 -96q-56 0 -136 80q-64 64 -112 64q-80 -16 -96 -96q24 -136 232 -152q456 48 504 456q0 248 -312 720q-176 264 -176 336q8 80 96 88q56 0 144 -80q80 -72 120 -72q88 16 96 112q-24 120 -264 136 q-440 -56 -480 -496zM744 912q0 136 88 216q16 -160 240 -520q232 -376 232 -528q0 -112 -96 -224h-8q16 144 -216 512q-240 384 -240 544z" />
<glyph unicode="&#xa8;" d="M704 1144q16 -104 120 -120q120 8 128 120q-8 112 -128 120q-112 -8 -120 -120zM1096 1144q8 -112 128 -120q112 16 120 120q-8 112 -120 120q-120 -8 -128 -120z" />
<glyph unicode="&#xad;" horiz-adv-x="1360" d="M136 592h1096v152h-1096v-152z" />
<glyph unicode="&#xb0;" d="M56 960q32 -312 352 -344q312 32 344 344q-32 312 -344 344q-320 -32 -352 -344zM192 960q16 200 216 216q200 -16 216 -216q-16 -200 -216 -216q-200 16 -216 216z" />
<glyph unicode="&#xb1;" d="M480 -32h1088v144h-1088v-144zM480 760h464v-464h160v464h464v160h-464v464h-160v-464h-464v-160z" />
<glyph unicode="&#xb7;" d="M824 720q8 -184 200 -192h8q184 16 200 192v16q-16 184 -200 200h-8q-184 -16 -200 -208v-8z" />
<glyph unicode="&#xd7;" d="M520 272l112 -112l392 392l400 -392l104 112l-392 392l392 400l-104 112l-400 -400l-400 400l-104 -112l392 -400z" />
<glyph unicode="&#xe0;" d="M496 368q16 -360 328 -376q152 0 336 152v-152h48l344 72v64q-40 -8 -64 -8q-88 -16 -80 152v632l-248 -40v-32q-88 24 -184 24q-440 -24 -480 -488zM688 1368l360 -392h120l-152 392h-328zM744 472q8 296 216 304q88 8 200 -88v-456q-104 -104 -184 -104 q-224 16 -232 344z" />
<glyph unicode="&#xe1;" d="M496 368q16 -360 328 -376q152 0 336 152v-152h48l344 72v64q-40 -8 -64 -8q-88 -16 -80 152v632l-248 -40v-32q-88 24 -184 24q-440 -24 -480 -488zM744 472q8 296 216 304q88 8 200 -88v-456q-104 -104 -184 -104q-224 16 -232 344zM824 976h336l152 392h-120z" />
<glyph unicode="&#xe8;" d="M608 400q16 -392 376 -408q256 8 440 248l-48 40q-152 -160 -248 -152q-216 24 -256 304h568v56q-32 16 -48 88q-24 120 -88 184q-96 96 -256 96q-408 -32 -440 -456zM688 1360l360 -384h120l-152 384h-328zM864 504q-8 224 144 256q136 -8 152 -256h-296z" />
<glyph unicode="&#xe9;" d="M608 400q16 -392 376 -408q256 8 440 248l-48 40q-152 -160 -248 -152q-216 24 -256 304h568v56q-32 16 -48 88q-24 120 -88 184q-96 96 -256 96q-408 -32 -440 -456zM848 976h328l152 392h-112zM864 504q-8 224 144 256q136 -8 152 -256h-296z" />
<glyph unicode="&#xea;" d="M608 400q16 -392 376 -408q256 8 440 248l-48 40q-152 -160 -248 -152q-216 24 -256 304h568v56q-32 16 -48 88q-24 120 -88 184q-96 96 -256 96q-408 -32 -440 -456zM696 976h160l152 216l168 -216h160l-176 384h-304zM864 504q-8 224 144 256q136 -8 152 -256h-296z " />
<glyph unicode="&#xec;" d="M736 1360l368 -384h120l-152 384h-336zM800 0h512v64q-128 0 -128 128v688h-40l-344 -120v-48l64 -24q80 -16 72 -88v-392q8 -152 -120 -144h-16v-64z" />
<glyph unicode="&#xed;" d="M728 0h512v64q-120 0 -120 128v688h-40l-352 -120v-48l72 -24q80 -16 72 -88v-392q8 -152 -120 -144h-24v-64zM832 976h328l152 392h-112z" />
<glyph unicode="&#xf2;" d="M528 408q24 -400 480 -416q480 24 512 440q-32 400 -480 424q-480 -32 -512 -448zM696 1360l360 -384h120l-152 384h-328zM792 528q8 232 192 240q248 -24 264 -448q0 -248 -184 -256q-240 24 -272 464z" />
<glyph unicode="&#xf3;" d="M528 408q24 -400 480 -416q480 24 512 440q-32 400 -480 424q-480 -32 -512 -448zM792 528q8 232 192 240q248 -24 264 -448q0 -248 -184 -256q-240 24 -272 464zM856 976h328l152 392h-120z" />
<glyph unicode="&#xf7;" d="M480 592h1088v152h-1088v-152zM928 256q8 -88 96 -96q88 8 96 96q-8 88 -96 96q-88 -8 -96 -96zM928 1080q8 -88 96 -96q88 8 96 96q-8 88 -96 96q-88 -8 -96 -96z" />
<glyph unicode="&#xf9;" d="M496 736l48 -24q48 -8 40 -112v-344q8 -256 224 -264q120 -8 368 152v-152h40l328 64v64q-32 -8 -56 -8q-72 -16 -64 120v624h-40l-376 -72v-48l96 -32q80 -16 72 -120v-368q-136 -80 -208 -80q-128 8 -136 200v520h-40l-296 -72v-48zM696 1360l360 -384h120l-152 384 h-328z" />
<glyph unicode="&#xfa;" d="M496 736l48 -24q48 -8 40 -112v-344q8 -256 224 -264q120 -8 368 152v-152h40l328 64v64q-32 -8 -56 -8q-72 -16 -64 120v624h-40l-376 -72v-48l96 -32q80 -16 72 -120v-368q-136 -80 -208 -80q-128 8 -136 200v520h-40l-296 -72v-48zM856 976h328l152 392h-120z" />
<glyph unicode="&#xfc;" d="M496 736l48 -24q48 -8 40 -112v-344q8 -256 224 -264q120 -8 368 152v-152h40l328 64v64q-32 -8 -56 -8q-72 -16 -64 120v624h-40l-376 -72v-48l96 -32q80 -16 72 -120v-368q-136 -80 -208 -80q-128 8 -136 200v520h-40l-296 -72v-48zM696 1144q8 -112 128 -120 q112 16 120 120q-8 112 -120 120q-120 -8 -128 -120zM1096 1144q16 -104 120 -120q120 8 128 120q-8 112 -128 120q-112 -8 -120 -120z" />
<glyph unicode="&#x2000;" horiz-adv-x="816" />
<glyph unicode="&#x2001;" horiz-adv-x="1632" />
<glyph unicode="&#x2002;" horiz-adv-x="816" />
<glyph unicode="&#x2003;" horiz-adv-x="1632" />
<glyph unicode="&#x2004;" horiz-adv-x="544" />
<glyph unicode="&#x2005;" horiz-adv-x="408" />
<glyph unicode="&#x2006;" horiz-adv-x="272" />
<glyph unicode="&#x2007;" horiz-adv-x="272" />
<glyph unicode="&#x2008;" horiz-adv-x="204" />
<glyph unicode="&#x2009;" horiz-adv-x="326" />
<glyph unicode="&#x200a;" horiz-adv-x="90" />
<glyph unicode="&#x2010;" horiz-adv-x="1360" d="M136 592h1096v152h-1096v-152z" />
<glyph unicode="&#x2011;" horiz-adv-x="1360" d="M136 592h1096v152h-1096v-152z" />
<glyph unicode="&#x2012;" horiz-adv-x="1360" d="M136 592h1096v152h-1096v-152z" />
<glyph unicode="&#x2013;" horiz-adv-x="1288" d="M136 592h1024v152h-1024v-152z" />
<glyph unicode="&#x2014;" d="M0 656h2048v88h-2048v-88z" />
<glyph unicode="&#x2018;" d="M1376 1216q16 -176 168 -200h24q128 16 128 136q0 72 -56 112q-48 40 -160 56q32 184 192 272v24q-144 -48 -232 -184q-64 -104 -64 -216z" />
<glyph unicode="&#x2019;" d="M352 1472q0 -48 64 -112q40 -24 136 -40h8q-24 -176 -192 -280v-24q120 40 192 120q112 128 112 264v32q0 72 -40 128q-48 64 -136 56q-128 -8 -144 -136v-8z" />
<glyph unicode="&#x201c;" d="M1128 1224q16 -168 176 -192h8q136 0 136 128v8q0 152 -208 160q24 152 192 280v24q-144 -48 -232 -184q-72 -104 -72 -216v-8zM1624 1224q16 -168 176 -192h8q136 0 136 128v8q0 152 -208 160q24 152 192 280v24q-144 -48 -232 -184q-72 -104 -72 -216v-8z" />
<glyph unicode="&#x201d;" d="M120 1472q8 -72 88 -128q56 -24 128 -24q-56 -200 -192 -280v-24q144 48 232 176q56 112 64 192v40q0 64 -32 120q-40 64 -136 72h-16q-120 -8 -136 -128v-16zM592 1472q8 -80 88 -120q40 -24 128 -24q-48 -200 -192 -280v-24q144 40 232 176q56 96 64 192v32 q0 80 -24 120q-40 64 -136 80h-24q-120 -24 -136 -128v-24z" />
<glyph unicode="&#x2026;" d="M192 704q8 -128 136 -136h8q120 8 128 136v8q-16 128 -128 136h-8q-120 -16 -136 -136v-8zM880 704q8 -128 136 -136h8q120 8 128 136v8q-16 128 -128 136h-8q-120 -16 -136 -136v-8zM1584 704q8 -128 136 -136h8q120 8 128 136v8q-16 128 -128 136h-8 q-120 -16 -136 -136v-8z" />
<glyph unicode="&#x202f;" horiz-adv-x="326" />
<glyph unicode="&#x205f;" horiz-adv-x="408" />
<glyph unicode="&#x25fc;" horiz-adv-x="840" d="M0 0v840h840v-840h-840z" />
</font>
</defs>
</svg>
